/* XPM */
static char * top_right_active_xpm[] = {
"81 80 3 1",
" 	c None",
".	c #C400E5",
"+	c #000000",
"       ..........................................................................",
"      ...........................................................................",
"     ..++++++++++++++++++++++++++++++++++++++++++++++++++++++++++++++++++++++++..",
"    ..+++++++++++++++++++++++++++++++++++++++++++++++++++++++++++++++++++++++++..",
"   ..++++++++++++++++++++++++++++++++++++++++++++++++++++++++++++++++++++++++++..",
"  ..+++++++++++++++++++++++++++++++++++++++++++++++++++++++++++++++++++++++++++..",
"...++++++++++++++++++++++++++++++++++++++++++++++++++++++++++++++++++++++++++++..",
"..+++++++++++++++++++++++++++++++++++++++++++++++++++++++++++++++++++++++++++++..",
"+++++++++++++++++++++++++++++++++++++++++++++++++++++++++++++++++++++++++++++++..",
"+++++++++++++++++++++++++++++++++++++++++++++++++++++++++++++++++++++++++++++++..",
"+++++++++++++++++++++++++++++++++++++++++++++++++++++++++++++++++++++++++++++++..",
"+++++++++++++++++++++++++++++++++++++++++++++++++++++++++++++++++++++++++++++++..",
"+++++++++++++++++++++++++++++++++++++++++++++++++++++++++++++++++++++++++++++++..",
"+++++++++++++++++++++++++++++++++++++++++++++++++++++++++++++++++++++++++++++++..",
"+++++++++++++++++++++++++++++++++++++++++++++++++++++++++++++++++++++++++++++++..",
"+++++++++++++++++++++++++++++++++++++++++++++++++++++++++++++++++++++++++++++++..",
"+++++++++++++++++++++++++++++++++++++++++++++++++++++++++++++++++++++++++++++++..",
"+++++++++++++++++++++++++++++++++++++++++++++++++++++++++++++++++++++++++++++++..",
"+++++++++++++++++++++++++++++++++++++++++++++++++++++++++++++++++++++++++++++++..",
"+++++++++++++++++++++++++++++++++++++++++++++++++++++++++++++++++++++++++++++++..",
"+++++++++++++++++++++++++++++++++++++++++++++++++++++++++++++++++++++++++++++++..",
"+++++++++++++++++++++++++++++++++++++++++++++++++++++++++++++++++++++++++++++++..",
"+++++++++++++++++++++++++++++++++++++++++++++++++++++++++++++++++++++++++++++++..",
"+++++++++++++++++++++++++++++++++++++++++++++++++++++++++++++++++++++++++++++++..",
"+++++++++++++++++++++++++++++++++++++++++++++++++++++++++++++++++++++++++++++++..",
"+++++++++++++++++++++++++++++++++++++++++++++++++++++++++++++++++++++++++++++++..",
"+++++++++++++++++++++++++++++++++++++++++++++++++++++++++++++++++++++++++++++++..",
"                                                      +++++++++++++++++++++++++..",
"                                                      +++++++++++++++++++++++++..",
"                                                      +++++++++++++++++++++++++..",
"                                                      +++++++++++++++++++++++++..",
"                                                      +++++++++++++++++++++++++..",
"                                                      +++++++++++++++++++++++++..",
"                                                      +++++++++++++++++++++++++..",
"                                                      +++++++++++++++++++++++++..",
"                                                      +++++++++++++++++++++++++..",
"                                                      +++++++++++++++++++++++++..",
"                                                      +++++++++++++++++++++++++..",
"                                                      +++++++++++++++++++++++++..",
"                                                      +++++++++++++++++++++++++..",
"                                                      +++++++++++++++++++++++++..",
"                                                      +++++++++++++++++++++++++..",
"                                                      +++++++++++++++++++++++++..",
"                                                      +++++++++++++++++++++++++..",
"                                                      +++++++++++++++++++++++++..",
"                                                      +++++++++++++++++++++++++..",
"                                                      +++++++++++++++++++++++++..",
"                                                      +++++++++++++++++++++++++..",
"                                                      +++++++++++++++++++++++++..",
"                                                      +++++++++++++++++++++++++..",
"                                                      +++++++++++++++++++++++++..",
"                                                      +++++++++++++++++++++++++..",
"                                                      +++++++++++++++++++++++++..",
"                                                      +++++++++++++++++++++++++..",
"                                                      +++++++++++++++++++++++++..",
"                                                      +++++++++++++++++++++++++..",
"                                                      +++++++++++++++++++++++++..",
"                                                      +++++++++++++++++++++++++..",
"                                                      +++++++++++++++++++++++++..",
"                                                      +++++++++++++++++++++++++..",
"                                                      +++++++++++++++++++++++++..",
"                                                      +++++++++++++++++++++++++..",
"                                                      +++++++++++++++++++++++++..",
"                                                      +++++++++++++++++++++++++..",
"                                                      +++++++++++++++++++++++++..",
"                                                      +++++++++++++++++++++++++..",
"                                                      +++++++++++++++++++++++++..",
"                                                      +++++++++++++++++++++++++..",
"                                                      ++++++++++++++++++++++++.. ",
"                                                      +++++++++++++++++++++++..  ",
"                                                      ++++++++++++++++++++++..   ",
"                                                      +++++++++++++++++++++..    ",
"                                                      ++++++++++++++++++++..     ",
"                                                      +++++++++++++++++++..      ",
"                                                      +++++++++++++++++++..      ",
"                                                      +++++++++++++++++++..      ",
"                                                      +++++++++++++++++++..      ",
"                                                      +++++++++++++++++++..      ",
"                                                      +++++++++++++++++++..      ",
"                                                      +++++++++++++++++++..      "};
