/* XPM */
static char * bottom_right_active_xpm[] = {
"81 80 3 1",
" 	c None",
".	c #000000",
"+	c #474747",
"                                                      ...................++      ",
"                                                      ...................++      ",
"                                                      ...................++      ",
"                                                      ...................++      ",
"                                                      ...................++      ",
"                                                      ...................++      ",
"                                                      ...................++      ",
"                                                      ....................++     ",
"                                                      .....................++    ",
"                                                      ......................++   ",
"                                                      .......................++  ",
"                                                      ........................++ ",
"                                                      .........................++",
"                                                      .........................++",
"                                                      .........................++",
"                                                      .........................++",
"                                                      .........................++",
"                                                      .........................++",
"                                                      .........................++",
"                                                      .........................++",
"                                                      .........................++",
"                                                      .........................++",
"                                                      .........................++",
"                                                      .........................++",
"                                                      .........................++",
"                                                      .........................++",
"                                                      .........................++",
"                                                      .........................++",
"                                                      .........................++",
"                                                      .........................++",
"                                                      .........................++",
"                                                      .........................++",
"                                                      .........................++",
"                                                      .........................++",
"                                                      .........................++",
"                                                      .........................++",
"                                                      .........................++",
"                                                      .........................++",
"                                                      .........................++",
"                                                      .........................++",
"                                                      .........................++",
"                                                      .........................++",
"                                                      .........................++",
"                                                      .........................++",
"                                                      .........................++",
"                                                      .........................++",
"                                                      .........................++",
"                                                      .........................++",
"                                                      .........................++",
"                                                      .........................++",
"                                                      .........................++",
"                                                      .........................++",
"                                                      .........................++",
"...............................................................................++",
"...............................................................................++",
"...............................................................................++",
"...............................................................................++",
"...............................................................................++",
"...............................................................................++",
"...............................................................................++",
"...............................................................................++",
"...............................................................................++",
"...............................................................................++",
"...............................................................................++",
"...............................................................................++",
"...............................................................................++",
"...............................................................................++",
"...............................................................................++",
"...............................................................................++",
"...............................................................................++",
"...............................................................................++",
"...............................................................................++",
"++.............................................................................++",
"+++............................................................................++",
"  ++...........................................................................++",
"   ++..........................................................................++",
"    ++.........................................................................++",
"     ++........................................................................++",
"      +++++++++++++++++++++++++++++++++++++++++++++++++++++++++++++++++++++++++++",
"       ++++++++++++++++++++++++++++++++++++++++++++++++++++++++++++++++++++++++++"};
