/* XPM */
static char * bottom_left_active_xpm[] = {
"81 80 2 1",
" 	c None",
".	c #000000",
"      .....................                                                      ",
"      .....................                                                      ",
"      .....................                                                      ",
"      .....................                                                      ",
"      .....................                                                      ",
"      .....................                                                      ",
"      .....................                                                      ",
"     ......................                                                      ",
"    .......................                                                      ",
"   ........................                                                      ",
"  .........................                                                      ",
" ..........................                                                      ",
"...........................                                                      ",
"...........................                                                      ",
"...........................                                                      ",
"...........................                                                      ",
"...........................                                                      ",
"...........................                                                      ",
"...........................                                                      ",
"...........................                                                      ",
"...........................                                                      ",
"...........................                                                      ",
"...........................                                                      ",
"...........................                                                      ",
"...........................                                                      ",
"...........................                                                      ",
"...........................                                                      ",
"...........................                                                      ",
"...........................                                                      ",
"...........................                                                      ",
"...........................                                                      ",
"...........................                                                      ",
"...........................                                                      ",
"...........................                                                      ",
"...........................                                                      ",
"...........................                                                      ",
"...........................                                                      ",
"...........................                                                      ",
"...........................                                                      ",
"...........................                                                      ",
"...........................                                                      ",
"...........................                                                      ",
"...........................                                                      ",
"...........................                                                      ",
"...........................                                                      ",
"...........................                                                      ",
"...........................                                                      ",
"...........................                                                      ",
"...........................                                                      ",
"...........................                                                      ",
"...........................                                                      ",
"...........................                                                      ",
"...........................                                                      ",
".................................................................................",
".................................................................................",
".................................................................................",
".................................................................................",
".................................................................................",
".................................................................................",
".................................................................................",
".................................................................................",
".................................................................................",
".................................................................................",
".................................................................................",
".................................................................................",
".................................................................................",
".................................................................................",
".................................................................................",
".................................................................................",
".................................................................................",
".................................................................................",
".................................................................................",
".................................................................................",
".................................................................................",
"...............................................................................  ",
"..............................................................................   ",
".............................................................................    ",
"............................................................................     ",
"...........................................................................      ",
"..........................................................................       "};
