/* XPM */
static char * title_3_inactive_xpm[] = {
"3 23 2 1",
" 	c None",
".	c #000000",
"   ",
"   ",
"   ",
"   ",
"   ",
"   ",
"...",
"...",
"...",
"...",
"...",
"...",
"...",
"...",
"...",
"...",
"...",
"...",
"...",
"...",
"...",
"...",
"..."};
