/* XPM */
static char * bottom_left_active_xpm[] = {
"81 80 3 1",
" 	c None",
".	c #4E005B",
"+	c #000000",
"      ..+++++++++++++++++++                                                      ",
"      ..+++++++++++++++++++                                                      ",
"      ..+++++++++++++++++++                                                      ",
"      ..+++++++++++++++++++                                                      ",
"      ..+++++++++++++++++++                                                      ",
"      ..+++++++++++++++++++                                                      ",
"      ..+++++++++++++++++++                                                      ",
"     ..++++++++++++++++++++                                                      ",
"    ..+++++++++++++++++++++                                                      ",
"   ..++++++++++++++++++++++                                                      ",
"  ..+++++++++++++++++++++++                                                      ",
" ..++++++++++++++++++++++++                                                      ",
"..+++++++++++++++++++++++++                                                      ",
"..+++++++++++++++++++++++++                                                      ",
"..+++++++++++++++++++++++++                                                      ",
"..+++++++++++++++++++++++++                                                      ",
"..+++++++++++++++++++++++++                                                      ",
"..+++++++++++++++++++++++++                                                      ",
"..+++++++++++++++++++++++++                                                      ",
"..+++++++++++++++++++++++++                                                      ",
"..+++++++++++++++++++++++++                                                      ",
"..+++++++++++++++++++++++++                                                      ",
"..+++++++++++++++++++++++++                                                      ",
"..+++++++++++++++++++++++++                                                      ",
"..+++++++++++++++++++++++++                                                      ",
"..+++++++++++++++++++++++++                                                      ",
"..+++++++++++++++++++++++++                                                      ",
"..+++++++++++++++++++++++++                                                      ",
"..+++++++++++++++++++++++++                                                      ",
"..+++++++++++++++++++++++++                                                      ",
"..+++++++++++++++++++++++++                                                      ",
"..+++++++++++++++++++++++++                                                      ",
"..+++++++++++++++++++++++++                                                      ",
"..+++++++++++++++++++++++++                                                      ",
"..+++++++++++++++++++++++++                                                      ",
"..+++++++++++++++++++++++++                                                      ",
"..+++++++++++++++++++++++++                                                      ",
"..+++++++++++++++++++++++++                                                      ",
"..+++++++++++++++++++++++++                                                      ",
"..+++++++++++++++++++++++++                                                      ",
"..+++++++++++++++++++++++++                                                      ",
"..+++++++++++++++++++++++++                                                      ",
"..+++++++++++++++++++++++++                                                      ",
"..+++++++++++++++++++++++++                                                      ",
"..+++++++++++++++++++++++++                                                      ",
"..+++++++++++++++++++++++++                                                      ",
"..+++++++++++++++++++++++++                                                      ",
"..+++++++++++++++++++++++++                                                      ",
"..+++++++++++++++++++++++++                                                      ",
"..+++++++++++++++++++++++++                                                      ",
"..+++++++++++++++++++++++++                                                      ",
"..+++++++++++++++++++++++++                                                      ",
"..+++++++++++++++++++++++++                                                      ",
"..+++++++++++++++++++++++++++++++++++++++++++++++++++++++++++++++++++++++++++++++",
"..+++++++++++++++++++++++++++++++++++++++++++++++++++++++++++++++++++++++++++++++",
"..+++++++++++++++++++++++++++++++++++++++++++++++++++++++++++++++++++++++++++++++",
"..+++++++++++++++++++++++++++++++++++++++++++++++++++++++++++++++++++++++++++++++",
"..+++++++++++++++++++++++++++++++++++++++++++++++++++++++++++++++++++++++++++++++",
"..+++++++++++++++++++++++++++++++++++++++++++++++++++++++++++++++++++++++++++++++",
"..+++++++++++++++++++++++++++++++++++++++++++++++++++++++++++++++++++++++++++++++",
"..+++++++++++++++++++++++++++++++++++++++++++++++++++++++++++++++++++++++++++++++",
"..+++++++++++++++++++++++++++++++++++++++++++++++++++++++++++++++++++++++++++++++",
"..+++++++++++++++++++++++++++++++++++++++++++++++++++++++++++++++++++++++++++++++",
"..+++++++++++++++++++++++++++++++++++++++++++++++++++++++++++++++++++++++++++++++",
"..+++++++++++++++++++++++++++++++++++++++++++++++++++++++++++++++++++++++++++++++",
"..+++++++++++++++++++++++++++++++++++++++++++++++++++++++++++++++++++++++++++++++",
"..+++++++++++++++++++++++++++++++++++++++++++++++++++++++++++++++++++++++++++++++",
"..+++++++++++++++++++++++++++++++++++++++++++++++++++++++++++++++++++++++++++++++",
"..+++++++++++++++++++++++++++++++++++++++++++++++++++++++++++++++++++++++++++++++",
"..+++++++++++++++++++++++++++++++++++++++++++++++++++++++++++++++++++++++++++++++",
"..+++++++++++++++++++++++++++++++++++++++++++++++++++++++++++++++++++++++++++++++",
"..+++++++++++++++++++++++++++++++++++++++++++++++++++++++++++++++++++++++++++++++",
"..+++++++++++++++++++++++++++++++++++++++++++++++++++++++++++++++++++++++++++++..",
"..++++++++++++++++++++++++++++++++++++++++++++++++++++++++++++++++++++++++++++...",
"..+++++++++++++++++++++++++++++++++++++++++++++++++++++++++++++++++++++++++++..  ",
"..++++++++++++++++++++++++++++++++++++++++++++++++++++++++++++++++++++++++++..   ",
"..+++++++++++++++++++++++++++++++++++++++++++++++++++++++++++++++++++++++++..    ",
"..++++++++++++++++++++++++++++++++++++++++++++++++++++++++++++++++++++++++..     ",
"...........................................................................      ",
"..........................................................................       "};
