/* XPM */
static char * title_4_active_xpm[] = {
"3 23 3 1",
" 	c None",
".	c #4E005B",
"+	c #000000",
"   ",
"   ",
"   ",
"   ",
"   ",
"   ",
"...",
"...",
"+++",
"+++",
"+++",
"+++",
"+++",
"+++",
"+++",
"+++",
"+++",
"+++",
"+++",
"+++",
"+++",
"+++",
"+++"};
