/* XPM */
static char * top_left_inactive_xpm[] = {
"81 80 3 1",
" 	c None",
".	c #4E005B",
"+	c #000000",
"..........................................................................       ",
"...........................................................................      ",
"..++++++++++++++++++++++++++++++++++++++++++++++++++++++++++++++++++++++++..     ",
"..+++++++++++++++++++++++++++++++++++++++++++++++++++++++++++++++++++++++++..    ",
"..++++++++++++++++++++++++++++++++++++++++++++++++++++++++++++++++++++++++++..   ",
"..+++++++++++++++++++++++++++++++++++++++++++++++++++++++++++++++++++++++++++..  ",
"..++++++++++++++++++++++++++++++++++++++++++++++++++++++++++++++++++++++++++++...",
"..+++++++++++++++++++++++++++++++++++++++++++++++++++++++++++++++++++++++++++++..",
"..+++++++++++++++++++++++++++++++++++++++++++++++++++++++++++++++++++++++++++++++",
"..+++++++++++++++++++++++++++++++++++++++++++++++++++++++++++++++++++++++++++++++",
"..+++++++++++++++++++++++++++++++++++++++++++++++++++++++++++++++++++++++++++++++",
"..+++++++++++++++++++++++++++++++++++++++++++++++++++++++++++++++++++++++++++++++",
"..+++++++++++++++++++++++++++++++++++++++++++++++++++++++++++++++++++++++++++++++",
"..+++++++++++++++++++++++++++++++++++++++++++++++++++++++++++++++++++++++++++++++",
"..+++++++++++++++++++++++++++++++++++++++++++++++++++++++++++++++++++++++++++++++",
"..+++++++++++++++++++++++++++++++++++++++++++++++++++++++++++++++++++++++++++++++",
"..+++++++++++++++++++++++++++++++++++++++++++++++++++++++++++++++++++++++++++++++",
"..+++++++++++++++++++++++++++++++++++++++++++++++++++++++++++++++++++++++++++++++",
"..+++++++++++++++++++++++++++++++++++++++++++++++++++++++++++++++++++++++++++++++",
"..+++++++++++++++++++++++++++++++++++++++++++++++++++++++++++++++++++++++++++++++",
"..+++++++++++++++++++++++++++++++++++++++++++++++++++++++++++++++++++++++++++++++",
"..+++++++++++++++++++++++++++++++++++++++++++++++++++++++++++++++++++++++++++++++",
"..+++++++++++++++++++++++++++++++++++++++++++++++++++++++++++++++++++++++++++++++",
"..+++++++++++++++++++++++++++++++++++++++++++++++++++++++++++++++++++++++++++++++",
"..+++++++++++++++++++++++++++++++++++++++++++++++++++++++++++++++++++++++++++++++",
"..+++++++++++++++++++++++++++++++++++++++++++++++++++++++++++++++++++++++++++++++",
"..+++++++++++++++++++++++++++++++++++++++++++++++++++++++++++++++++++++++++++++++",
"..+++++++++++++++++++++++++                                                      ",
"..+++++++++++++++++++++++++                                                      ",
"..+++++++++++++++++++++++++                                                      ",
"..+++++++++++++++++++++++++                                                      ",
"..+++++++++++++++++++++++++                                                      ",
"..+++++++++++++++++++++++++                                                      ",
"..+++++++++++++++++++++++++                                                      ",
"..+++++++++++++++++++++++++                                                      ",
"..+++++++++++++++++++++++++                                                      ",
"..+++++++++++++++++++++++++                                                      ",
"..+++++++++++++++++++++++++                                                      ",
"..+++++++++++++++++++++++++                                                      ",
"..+++++++++++++++++++++++++                                                      ",
"..+++++++++++++++++++++++++                                                      ",
"..+++++++++++++++++++++++++                                                      ",
"..+++++++++++++++++++++++++                                                      ",
"..+++++++++++++++++++++++++                                                      ",
"..+++++++++++++++++++++++++                                                      ",
"..+++++++++++++++++++++++++                                                      ",
"..+++++++++++++++++++++++++                                                      ",
"..+++++++++++++++++++++++++                                                      ",
"..+++++++++++++++++++++++++                                                      ",
"..+++++++++++++++++++++++++                                                      ",
"..+++++++++++++++++++++++++                                                      ",
"..+++++++++++++++++++++++++                                                      ",
"..+++++++++++++++++++++++++                                                      ",
"..+++++++++++++++++++++++++                                                      ",
"..+++++++++++++++++++++++++                                                      ",
"..+++++++++++++++++++++++++                                                      ",
"..+++++++++++++++++++++++++                                                      ",
"..+++++++++++++++++++++++++                                                      ",
"..+++++++++++++++++++++++++                                                      ",
"..+++++++++++++++++++++++++                                                      ",
"..+++++++++++++++++++++++++                                                      ",
"..+++++++++++++++++++++++++                                                      ",
"..+++++++++++++++++++++++++                                                      ",
"..+++++++++++++++++++++++++                                                      ",
"..+++++++++++++++++++++++++                                                      ",
"..+++++++++++++++++++++++++                                                      ",
"..+++++++++++++++++++++++++                                                      ",
"..+++++++++++++++++++++++++                                                      ",
" ..++++++++++++++++++++++++                                                      ",
"  ..+++++++++++++++++++++++                                                      ",
"   ..++++++++++++++++++++++                                                      ",
"    ..+++++++++++++++++++++                                                      ",
"     ..++++++++++++++++++++                                                      ",
"      ..+++++++++++++++++++                                                      ",
"      ..+++++++++++++++++++                                                      ",
"      ..+++++++++++++++++++                                                      ",
"      ..+++++++++++++++++++                                                      ",
"      ..+++++++++++++++++++                                                      ",
"      ..+++++++++++++++++++                                                      ",
"      ..+++++++++++++++++++                                                      "};
